<svg aria-hidden="true" style="position:absolute;width:0;height:0;overflow:hidden" xmlns="http://www.w3.org/2000/svg"><defs><symbol id="github" viewBox="0 0 32 32"><path d="M7.84.453c-.666 1.258-.765 1.757-.806 4.038L7 6.388l-.419.697c-.77 1.278-1.095 2.428-1.092 3.853.005 1.958.774 3.713 2.359 5.381 1.31 1.38 3.361 2.612 5.403 3.246.256.08.478.153.494.164s-.162.197-.394.416c-.87.818-1.448 2.006-1.58 3.244l-.045.424-.975-.001c-1.569-.002-1.695-.09-2.522-1.752-.313-.629-.669-1.279-.79-1.444-.337-.457-1.035-.985-1.609-1.217-.713-.287-1.242-.35-2.738-.326l-1.288.021-.49.219c-1.455.649-1.759 2.267-.608 3.24.467.395.86.53 1.659.572.711.038.987.127 1.134.366.039.064.269.577.51 1.141s.551 1.21.688 1.438c.705 1.17 1.961 2.02 3.502 2.37.454.103.883.138 2.061.167l1.487.036v3.356h14.049v-3.984c0-2.27-.032-4.279-.074-4.668a5.07 5.07 0 0 0-1.585-3.191c-.242-.225-.427-.418-.412-.428s.238-.083.494-.161c1.219-.372 2.737-1.127 3.873-1.926 2.685-1.889 4.184-4.773 3.868-7.446-.144-1.22-.439-2.063-1.108-3.171l-.382-.631-.036-1.931c-.038-2.012-.073-2.279-.414-3.163a9.73 9.73 0 0 0-.391-.846L29.389 0l-.919.001c-1.035.001-1.636.068-2.316.26a6.273 6.273 0 0 0-2.422 1.264l-.451.375-.409-.079c-1.9-.367-2.641-.446-4.166-.446-1.201 0-2.355.113-3.605.355l-.839.162-.452-.361C12.453.447 11.051 0 9.008 0h-.927l-.24.453zm3.044 1.106c.736.216 1.36.577 2.182 1.262l.763.635.624-.166c1.637-.435 2.854-.568 4.769-.522 1.552.038 2.44.159 3.786.519l.642.172.516-.437c.887-.752 1.241-.994 1.796-1.23a4.874 4.874 0 0 1 1.931-.416l.488-.001.113.234c.062.129.173.487.246.797.113.477.134.855.135 2.478l.001 1.916.261.334c.586.75 1.081 1.907 1.239 2.893.484 3.031-1.676 6.136-5.403 7.768-1.008.442-1.836.7-3.14.981l-1.201.259 1.263 1.092c1.324 1.144 1.57 1.404 1.869 1.974.416.793.407.684.434 4.758l.026 3.766H13.25v-1.158c0-1.261-.046-1.461-.416-1.8-.399-.366-.479-.38-2.344-.42-1.621-.034-1.751-.046-2.254-.202-.874-.271-1.661-.826-2.102-1.483-.103-.154-.42-.815-.703-1.468s-.606-1.302-.716-1.442c-.413-.525-1.115-.839-1.878-.839-.647 0-.965-.094-1.132-.332-.26-.371-.142-.754.291-.95.281-.127 2.408-.133 2.882-.008.445.117.942.428 1.194.746.115.146.461.782.768 1.413.597 1.228.875 1.606 1.449 1.974.644.413.983.488 2.34.518 1.312.028 1.631-.015 2.023-.273.383-.252.527-.529.639-1.228.128-.802.328-1.392.664-1.954.218-.365.479-.624 1.575-1.561 1.189-1.018 1.298-1.128 1.148-1.166a58.213 58.213 0 0 0-1.133-.242C8.912 17.383 5.367 12.449 7.798 7.97c.149-.275.389-.651.533-.835l.261-.334.001-1.916c.001-2.003.076-2.641.385-3.284l.117-.243.663.032c.403.019.845.086 1.129.169z"/></symbol><symbol id="instagram" viewBox="0 0 32 32"><path d="M7.153.09C4.03.631 1.402 2.935.333 6.068L0 7.043v17.933l.333.975c.936 2.743 2.974 4.779 5.718 5.715l.976.333h17.945l.976-.333c2.745-.935 4.783-2.972 5.718-5.715l.333-.975V7.043l-.333-.975C30.73 3.325 28.69 1.287 25.948.354l-.976-.332-8.596-.02c-4.728-.011-8.878.029-9.224.089zm17.744 1.942c2.466.581 4.509 2.623 5.091 5.087.281 1.191.281 16.591 0 17.782-.581 2.464-2.625 4.506-5.091 5.087-1.192.281-16.602.281-17.794 0-2.466-.581-4.509-2.623-5.091-5.087-.281-1.191-.281-16.591 0-17.782.574-2.434 2.617-4.497 5.033-5.081 1.123-.272 16.702-.277 17.851-.006zm-.66 2.219c-.997.264-1.836 1.426-1.835 2.542.001.655.552 1.641 1.133 2.025 1.025.678 2.532.519 3.346-.353.644-.69.857-1.982.464-2.81-.276-.58-1.063-1.263-1.641-1.424-.564-.157-.813-.153-1.466.02zm1.196 1.934c.261.236.304.797.079 1.021-.213.213-.799.187-1.033-.047-.268-.269-.248-.63.054-.932.305-.305.595-.319.9-.043zM14.18 7.437c-.483.102-1.412.442-2.064.757-.996.481-1.36.747-2.275 1.661s-1.18 1.277-1.661 2.274c-.623 1.29-.964 2.664-.964 3.882s.341 2.592.964 3.882c.481.996.746 1.359 1.661 2.274s1.278 1.18 2.275 1.66c1.291.622 2.665.963 3.884.963s2.593-.341 3.884-.963c.997-.481 1.359-.745 2.275-1.66s1.18-1.277 1.662-2.274c1.273-2.637 1.273-5.126 0-7.763-.481-.996-.746-1.359-1.662-2.274s-1.278-1.179-2.275-1.66c-1.91-.921-3.759-1.167-5.704-.758zm4.006 2.044a7.024 7.024 0 0 1 4.361 4.373c.409 1.19.409 3.122 0 4.312-.706 2.054-2.26 3.617-4.361 4.385-1.065.39-3.306.39-4.372 0-2.101-.768-3.656-2.331-4.361-4.385-.409-1.19-.409-3.122 0-4.312.811-2.36 2.746-4.07 5.23-4.62.8-.177 2.667-.046 3.504.247z"/></symbol><symbol id="linkedin" viewBox="0 0 32 32"><path d="M3.306.071C1.065.572-.368 2.671.097 4.775c.161.73.441 1.247.999 1.847.402.432.612.598 1.033.815.783.404 1.21.508 2.09.508.888 0 1.324-.106 2.093-.508.683-.358 1.432-1.132 1.734-1.794.697-1.527.445-3.073-.702-4.305C6.531.465 5.621.057 4.375.006c-.413-.017-.809.008-1.069.066zM4.825 2.05c.466.104 1.017.433 1.3.776.918 1.114.314 2.625-1.221 3.051-1.466.408-3.029-.572-3.029-1.899 0-1.295 1.473-2.257 2.95-1.928zM.491 10.127a1.185 1.185 0 0 0-.359.391l-.132.25v20.446l.132.251c.073.138.238.315.368.393.232.139.287.141 3.714.141 3.292 0 3.491-.007 3.711-.127a1.04 1.04 0 0 0 .373-.393l.14-.266V10.767l-.14-.266a1.045 1.045 0 0 0-.372-.393c-.22-.12-.417-.127-3.719-.125-3.433.002-3.49.004-3.714.142zm10.313 0a1.185 1.185 0 0 0-.359.391l-.132.25v20.446l.132.251c.073.138.238.315.368.393.232.139.286.141 3.776.141 3.353 0 3.553-.007 3.773-.127a1.03 1.03 0 0 0 .372-.393l.14-.266.001-5.962c.001-5.626.008-5.977.115-6.229.371-.869 1.426-1.501 2.504-1.501.6 0 .977.132 1.335.468.306.288.571.841.67 1.401.038.216.062 2.556.062 6.087 0 5.719 0 5.737.132 5.988.073.138.238.315.368.393.232.139.287.141 3.714.141 3.292 0 3.491-.007 3.711-.127a1.03 1.03 0 0 0 .372-.393l.14-.266v-5.708c0-3.441-.026-6.048-.066-6.563-.298-3.841-1.78-6.533-4.358-7.919-2.092-1.124-4.975-1.251-7.091-.31a7.484 7.484 0 0 0-1.027.6l-.552.389-.031-.51c-.037-.599-.163-.867-.503-1.071-.229-.137-.294-.14-3.787-.138-3.502.002-3.557.004-3.782.142zM6.563 20.991v9.007H1.875V11.984h4.688v9.007zM17 13.235c0 1.058.017 1.287.109 1.483.153.325.47.535.809.535.372 0 .566-.121.928-.579 1.429-1.81 2.341-2.376 4.128-2.563 2.039-.213 3.989.479 5.216 1.85.653.73 1.082 1.501 1.405 2.529.481 1.529.528 2.28.528 8.388v5.121H25.44l-.02-5.421c-.019-5.319-.022-5.43-.154-5.93-.42-1.585-1.429-2.685-2.774-3.024-.892-.225-2.115-.078-3.034.365-1.225.59-2.192 1.771-2.397 2.928-.04.224-.063 2.374-.063 5.721V30h-4.813V11.986h4.813v1.251z"/></symbol><symbol id="telegram" viewBox="0 0 32 32"><path d="M28.248.571c-.826.315-7.11 2.699-13.963 5.298S1.622 10.678 1.373 10.781a2.116 2.116 0 0 0-1.189 1.168c-.234.548-.246 1.309-.03 1.854.159.401.508.853.794 1.028.103.063 1.747.902 3.653 1.863s3.476 1.761 3.489 1.776c.013.015.504 2.587 1.09 5.716s1.118 5.803 1.181 5.944c.251.561.803.737 1.294.414.138-.091 1.44-1.193 2.893-2.449l2.642-2.283 3.056 2.879c1.681 1.584 3.193 2.966 3.36 3.071.412.259.963.31 1.457.134.506-.18 1.078-.834 1.229-1.406.057-.216 1.376-6.622 2.93-14.236 3.105-15.205 2.939-14.251 2.605-15.009-.213-.483-.695-.975-1.108-1.128-.581-.216-.839-.169-2.472.454zm1.909 1.615c0 .091-5.643 27.62-5.667 27.648-.017.019-.08-.015-.14-.076s-2.223-2.098-4.806-4.527c-2.583-2.429-4.718-4.44-4.746-4.469s2.176-2.731 4.896-6.007c2.72-3.275 4.989-6.053 5.043-6.172.193-.429.099-.935-.242-1.301-.124-.134-.249-.182-.523-.202l-.359-.027-14.736 9.435-3.513-1.769c-1.932-.973-3.49-1.796-3.461-1.83.054-.062 28.037-10.714 28.176-10.725.043-.003.078.006.078.021zm-11.404 10.55c-.047.067-1.435 1.746-3.084 3.731s-3.037 3.678-3.086 3.762c-.048.084-.3 1.009-.559 2.055s-.53 2.129-.602 2.407l-.13.505-.648-3.456c-.356-1.901-.633-3.474-.614-3.495.039-.045 8.749-5.626 8.785-5.629.013-.001-.015.053-.063.121zm-3.884 10.892c.425.398.771.746.771.773-.001.061-2.723 2.415-2.753 2.38-.018-.021.854-3.633.964-3.994.025-.084.048-.082.139.008.06.059.456.434.88.832z"/></symbol></defs></svg>